<svg width="360" height="360" viewBox="0 0 360 360" fill="none" xmlns="http://www.w3.org/2000/svg">
<mask id="mask0_2_23320" style="mask-type:alpha" maskUnits="userSpaceOnUse" x="0" y="0" width="361" height="360">
<rect x="0.00488281" width="360" height="360" fill="#FFA6A6"/>
</mask>
<g mask="url(#mask0_2_23320)">
<g filter="url(#filter0_d_2_23320)">
<ellipse cx="180.302" cy="459.567" rx="358.297" ry="352.371" fill="#FF4E4E"/>
<path fill-rule="evenodd" clip-rule="evenodd" d="M51.4263 81.981C46.425 83.3044 43.4434 88.4316 44.7668 93.4329L51.1565 117.581C52.0388 120.916 55.4568 122.903 58.7911 122.021L59.3064 121.885C61.4802 125.073 65.5013 126.706 69.4442 125.662C73.3871 124.619 76.0747 121.211 76.3872 117.365L95.5292 112.3C97.7029 115.489 101.724 117.121 105.667 116.078C109.61 115.034 112.298 111.627 112.61 107.781L113.125 107.644C116.46 106.762 118.447 103.344 117.565 100.01L112.458 80.7076C111.985 78.9198 110.993 77.312 109.608 76.0868L105.094 72.0953C102.748 70.0204 99.5203 69.2553 96.4924 70.0565L51.4263 81.981ZM50.8039 91.8355C50.3628 90.1684 51.3567 88.4593 53.0238 88.0182L59.0609 86.4208L61.4571 95.4765L52.4013 97.8726L50.8039 91.8355ZM74.1538 82.4272L65.098 84.8233L67.4942 93.879L76.5499 91.4829L74.1538 82.4272ZM82.5871 89.8855L91.6428 87.4893L89.2466 78.4336L80.1909 80.8297L82.5871 89.8855ZM107.534 86.5143L106.421 82.305C106.263 81.7091 105.932 81.1731 105.471 80.7647L100.957 76.7732C100.175 76.0816 99.0993 75.8266 98.0898 76.0937L95.2838 76.8362L98.4786 88.9104L107.534 86.5143ZM102.472 104.003C104.139 103.562 105.848 104.556 106.29 106.223C106.731 107.89 105.737 109.599 104.07 110.04C102.403 110.482 100.694 109.488 100.252 107.821C99.8112 106.153 100.805 104.444 102.472 104.003ZM70.0666 115.808C69.6255 114.141 67.9165 113.147 66.2494 113.588C64.5823 114.029 63.5884 115.738 64.0295 117.405C64.4706 119.072 66.1797 120.066 67.8468 119.625C69.5139 119.184 70.5078 117.475 70.0666 115.808Z" fill="#FF4E4E"/>
<path fill-rule="evenodd" clip-rule="evenodd" d="M327.38 108.193L328.26 105.388C328.26 105.388 322.834 103.047 315.246 103.532C307.657 104.017 302.938 101.791 302.474 100.902C302.01 100.013 299.857 96.0429 299.495 95.504C299.423 95.3974 299.347 95.2394 299.26 95.0593C298.907 94.3302 298.381 93.2402 297.284 93.7477C297.045 93.8586 296.817 93.8941 296.594 93.9023L298.37 92.023C298.657 91.7198 299.091 91.6064 299.49 91.7314L305.311 93.5596C305.837 93.7249 305.962 93.3235 306.121 92.8093C306.131 92.7759 306.141 92.742 306.152 92.7078L306.184 92.6067C306.348 92.0937 306.475 91.6939 305.949 91.5285L300.128 89.7004C298.952 89.3312 297.669 89.6654 296.823 90.5611L294.625 92.887C294.193 92.2738 292.483 90.0847 289.395 88.9331L287.269 95.7011C287.269 95.7011 289.667 96.2247 291.158 96.4279L288.653 98.6718C286.788 96.6911 284.341 95.2173 281.493 94.5514C279.312 94.0403 277.131 94.0594 275.084 94.5211L275.121 96.6463C276.768 96.3538 278.499 96.3822 280.232 96.788C283.064 97.4507 285.239 98.6069 286.841 100.295L283.985 102.853C282.943 101.916 281.696 101.176 280.272 100.729C274.959 99.0596 269.299 102.014 267.63 107.328C265.961 112.641 268.916 118.302 274.229 119.971C279.543 121.639 285.203 118.684 286.872 113.371C287.832 110.313 287.255 107.145 285.585 104.685L288.308 102.246C289.592 104.454 290.239 107.295 290.322 110.842C290.324 110.896 290.513 111.229 290.718 111.588C290.965 112.022 291.234 112.494 291.218 112.558L291.488 112.259C290.679 115.41 293.092 116.228 293.092 116.228L302.182 119.082C309.427 107.559 323.306 108.05 326.887 108.177C327.083 108.184 327.248 108.19 327.38 108.193ZM283.005 112.156C282.007 115.334 278.621 117.101 275.444 116.103C272.267 115.105 270.499 111.72 271.497 108.542C272.495 105.365 275.881 103.597 279.058 104.595C279.76 104.816 280.388 105.158 280.937 105.583L277.837 108.359C276.753 108.04 275.609 108.644 275.268 109.726C274.925 110.821 275.534 111.988 276.629 112.332C277.724 112.676 278.89 112.066 279.233 110.972C279.304 110.747 279.325 110.52 279.32 110.297L282.521 107.43C283.294 108.824 283.52 110.516 283.005 112.156ZM290.16 100.588L292.437 98.5474C292.581 100.431 292.509 103.326 292.328 105.978C291.979 104.038 291.233 102.208 290.16 100.588ZM318.274 112.663C312.961 110.994 307.3 113.949 305.631 119.262C303.963 124.576 306.917 130.236 312.231 131.905C317.544 133.574 323.205 130.619 324.874 125.305C326.542 119.992 323.587 114.332 318.274 112.663ZM313.446 128.037C310.268 127.039 308.501 123.654 309.499 120.477C310.496 117.3 313.882 115.532 317.06 116.53C320.237 117.528 322.004 120.914 321.006 124.091C320.008 127.268 316.623 129.035 313.446 128.037ZM313.27 121.661C313.614 120.566 314.78 119.958 315.875 120.302C316.97 120.646 317.578 121.811 317.235 122.906C316.891 124.001 315.725 124.61 314.63 124.266C313.535 123.923 312.926 122.756 313.27 121.661Z" fill="#FF4F4F"/>
</g>
<g filter="url(#filter1_d_2_23320)">
<ellipse cx="180.005" cy="459.768" rx="333" ry="327.984" fill="#FF9669"/>
<path d="M200.409 98.7571L190.475 109.497L184.655 108.896C181.424 108.563 178.566 110.885 178.233 114.116L177.331 122.847L183.152 123.448C182.653 128.28 186.15 132.582 190.982 133.081C195.813 133.58 200.116 130.083 200.615 125.251L218.077 127.055C217.578 131.886 221.076 136.189 225.907 136.687C230.738 137.186 235.041 133.689 235.54 128.858L241.361 129.459L242.262 120.727C242.596 117.497 240.273 114.639 237.042 114.306L229.513 101.762L200.409 98.7571ZM215.965 104.776L226.879 105.903L231.629 113.747L215.214 112.052L215.965 104.776ZM211.6 104.325L210.848 111.601L195.889 110.056L202.141 103.348L211.6 104.325ZM227.259 123.59C229.675 123.84 231.423 125.991 231.174 128.407C230.925 130.823 228.773 132.571 226.358 132.322C223.942 132.072 222.193 129.921 222.443 127.505C222.692 125.09 224.844 123.341 227.259 123.59ZM192.334 119.984C194.75 120.234 196.498 122.385 196.249 124.801C195.999 127.216 193.848 128.965 191.432 128.716C189.017 128.466 187.268 126.315 187.518 123.899C187.767 121.483 189.918 119.735 192.334 119.984Z" fill="#FF9669"/>
</g>
<g filter="url(#filter2_d_2_23320)">
<ellipse cx="180.005" cy="459.275" rx="308" ry="302.906" fill="#C5E3DC"/>
<path fill-rule="evenodd" clip-rule="evenodd" d="M306.695 178.083L324.839 140.497L370.823 162.695L352.679 200.281L345.218 196.679C342.923 200.443 338.106 201.925 334.052 199.968C330 198.012 328.159 193.317 329.688 189.182L306.695 178.083ZM333.917 190.278C332.878 192.432 333.782 195.025 335.936 196.065C338.092 197.106 340.683 196.2 341.723 194.046C342.763 191.892 341.858 189.305 339.702 188.264C337.548 187.225 334.957 188.124 333.917 190.278ZM280.511 147.809L294.213 134.271C295.791 133.136 298.517 132.898 300.268 133.743L318.375 142.484L302.23 175.928L295.18 172.524C292.889 176.29 288.067 177.769 284.016 175.813C279.964 173.857 278.126 169.164 279.65 165.027L275.837 163.186C274.084 162.34 273.346 160.213 274.19 158.464L277.301 152.019C277.814 150.957 279.268 148.906 280.511 147.809ZM283.881 166.124C282.841 168.278 283.746 170.871 285.9 171.911C288.056 172.952 290.647 172.046 291.686 169.892C292.726 167.738 291.822 165.151 289.665 164.11C287.511 163.07 284.921 163.97 283.881 166.124ZM306.708 157.296L312.707 144.867L299.849 138.66C299.18 138.337 297.782 138.457 297.177 138.894L288.12 148.323L306.708 157.296Z" fill="#C5E3DC"/>
<path d="M46.8481 144.032L61.3709 151.333L67.1927 148.438C70.4238 146.831 74.3028 148.134 75.9095 151.365L80.2522 160.097L74.4305 162.992C76.8334 167.824 74.8726 173.665 70.0405 176.068C65.2085 178.471 59.3682 176.51 56.9653 171.678L39.5 180.363C41.903 185.195 39.9421 191.035 35.1101 193.438C30.2781 195.841 24.4378 193.88 22.0348 189.048L16.2131 191.943L11.8704 183.211C10.2636 179.98 11.566 176.101 14.797 174.494L17.7394 158.508L46.8481 144.032ZM33.0097 156.36L22.0939 161.788L20.2112 171.802L36.6286 163.637L33.0097 156.36ZM37.376 154.189L40.9949 161.466L55.9567 154.026L46.8363 149.484L37.376 154.189ZM28.5961 180.339C26.1801 181.541 25.1996 184.461 26.4011 186.877C27.6026 189.293 30.5227 190.273 32.9388 189.072C35.3548 187.87 36.3352 184.95 35.1337 182.534C33.9323 180.118 31.0121 179.138 28.5961 180.339ZM63.5265 162.969C61.1105 164.17 60.1301 167.09 61.3316 169.506C62.533 171.922 65.4532 172.903 67.8692 171.701C70.2852 170.5 71.2656 167.58 70.0642 165.164C68.8627 162.748 65.9426 161.767 63.5265 162.969Z" fill="#C5E3DC"/>
</g>
<ellipse cx="180.005" cy="459.275" rx="285" ry="280.286" fill="#F0F2F2"/>
</g>
<defs>
<filter id="filter0_d_2_23320" x="-181.995" y="62.7446" width="730.594" height="756.193" filterUnits="userSpaceOnUse" color-interpolation-filters="sRGB">
<feFlood flood-opacity="0" result="BackgroundImageFix"/>
<feColorMatrix in="SourceAlpha" type="matrix" values="0 0 0 0 0 0 0 0 0 0 0 0 0 0 0 0 0 0 127 0" result="hardAlpha"/>
<feOffset dx="3"/>
<feGaussianBlur stdDeviation="3.5"/>
<feComposite in2="hardAlpha" operator="out"/>
<feColorMatrix type="matrix" values="0 0 0 0 0 0 0 0 0 0 0 0 0 0 0 0 0 0 0.25 0"/>
<feBlend mode="normal" in2="BackgroundImageFix" result="effect1_dropShadow_2_23320"/>
<feBlend mode="normal" in="SourceGraphic" in2="effect1_dropShadow_2_23320" result="shape"/>
</filter>
<filter id="filter1_d_2_23320" x="-157.995" y="90.7571" width="682" height="704.995" filterUnits="userSpaceOnUse" color-interpolation-filters="sRGB">
<feFlood flood-opacity="0" result="BackgroundImageFix"/>
<feColorMatrix in="SourceAlpha" type="matrix" values="0 0 0 0 0 0 0 0 0 0 0 0 0 0 0 0 0 0 127 0" result="hardAlpha"/>
<feOffset dx="3"/>
<feGaussianBlur stdDeviation="4"/>
<feComposite in2="hardAlpha" operator="out"/>
<feColorMatrix type="matrix" values="0 0 0 0 0 0 0 0 0 0 0 0 0 0 0 0 0 0 0.25 0"/>
<feBlend mode="normal" in2="BackgroundImageFix" result="effect1_dropShadow_2_23320"/>
<feBlend mode="normal" in="SourceGraphic" in2="effect1_dropShadow_2_23320" result="shape"/>
</filter>
<filter id="filter2_d_2_23320" x="-130.995" y="124.237" width="632" height="644.944" filterUnits="userSpaceOnUse" color-interpolation-filters="sRGB">
<feFlood flood-opacity="0" result="BackgroundImageFix"/>
<feColorMatrix in="SourceAlpha" type="matrix" values="0 0 0 0 0 0 0 0 0 0 0 0 0 0 0 0 0 0 127 0" result="hardAlpha"/>
<feOffset dx="5" dy="-1"/>
<feGaussianBlur stdDeviation="4"/>
<feComposite in2="hardAlpha" operator="out"/>
<feColorMatrix type="matrix" values="0 0 0 0 0 0 0 0 0 0 0 0 0 0 0 0 0 0 0.25 0"/>
<feBlend mode="normal" in2="BackgroundImageFix" result="effect1_dropShadow_2_23320"/>
<feBlend mode="normal" in="SourceGraphic" in2="effect1_dropShadow_2_23320" result="shape"/>
</filter>
</defs>
</svg>
